Coordinates
version=1
nRows=13
nColumns=63
inDegrees=yes

Units are S.I. units (second, meters, Newtons, ...)
If the header above contains a line with 'inDegrees', this indicates whether rotational values are in degrees (yes) or radians (no).

endheader
time	pelvis_tilt	pelvis_list	pelvis_rotation	pelvis_tx	pelvis_ty	pelvis_tz	hip_flexion_r	hip_adduction_r	hip_rotation_r	knee_angle_r	knee_angle_r_beta	ankle_angle_r	subtalar_angle_r	mtp_angle_r	hip_flexion_l	hip_adduction_l	hip_rotation_l	knee_angle_l	knee_angle_l_beta	ankle_angle_l	subtalar_angle_l	mtp_angle_l	L5_S1_Flex_Ext	L5_S1_Lat_Bending	L5_S1_axial_rotation	L4_L5_Flex_Ext	L4_L5_Lat_Bending	L4_L5_axial_rotation	L3_L4_Flex_Ext	L3_L4_Lat_Bending	L3_L4_axial_rotation	L2_L3_Flex_Ext	L2_L3_Lat_Bending	L2_L3_axial_rotation	L1_L2_Flex_Ext	L1_L2_Lat_Bending	L1_L2_axial_rotation	L1_T12_Flex_Ext	L1_T12_Lat_Bending	L1_T12_axial_rotation	Abs_r3	Abs_r2	Abs_r1	Abs_t1	Abs_t2	neck_flexion	neck_bending	neck_rotation	arm_flex_r	arm_add_r	arm_rot_r	elbow_flex_r	pro_sup_r	wrist_flex_r	wrist_dev_r	arm_flex_l	arm_add_l	arm_rot_l	elbow_flex_l	pro_sup_l	wrist_flex_l	wrist_dev_l
1.932203	2.923118	-7.464235	89.347864	0.152130	0.887933	0.413618	13.079311	-4.019855	-19.412130	24.543994	0.428374	39.388702	18.641998	0.000000	17.544874	-4.666613	-11.877538	30.391599	0.530433	39.436661	7.128949	0.000000	-0.120990	-0.237617	2.734368	-0.224691	-0.316031	2.905266	-0.198775	-0.577743	2.905266	-0.138280	-0.577743	2.392572	-0.112352	-0.484549	2.221674	-0.069134	-0.368069	2.050776	-0.864221	-2.687974	15.207735	0.000000	0.000000	10.472593	8.093183	-9.788240	-29.984092	-25.004150	-12.798049	114.725341	80.984674	-6.113267	0.229078	-27.468976	-34.459710	-10.134013	121.753760	89.078967	-7.186710	-4.687503
1.949153	2.892995	-7.360274	88.986082	0.152488	0.887722	0.413576	13.160113	-3.974009	-18.855939	24.745653	0.431893	39.583569	18.610814	0.000000	17.597161	-4.797772	-12.272391	30.808037	0.537702	39.696962	7.396676	0.000000	-0.117736	-0.237698	2.718477	-0.218648	-0.316138	2.888381	-0.193429	-0.577939	2.888381	-0.134561	-0.577939	2.378667	-0.109330	-0.484714	2.208762	-0.067274	-0.368194	2.038857	-0.840978	-2.688887	15.119351	0.000000	0.000000	10.602688	8.286594	-9.383991	-29.040849	-24.281785	-8.777809	115.741512	79.142544	-5.169959	1.421660	-25.903042	-33.199566	-6.177645	123.828946	88.071815	-7.068128	-2.331143
1.966102	2.933245	-7.242945	88.705167	0.152810	0.887451	0.413550	13.219350	-3.867257	-18.379964	24.958619	0.435610	39.762323	18.571331	0.000000	17.666356	-4.991170	-12.576267	31.269378	0.545754	39.934513	7.735508	0.000000	-0.113130	-0.230178	2.668512	-0.210093	-0.306137	2.835295	-0.185861	-0.559656	2.835295	-0.129296	-0.559656	2.334948	-0.105052	-0.469380	2.168166	-0.064642	-0.356546	2.001384	-0.808073	-2.603823	14.841466	0.000000	0.000000	10.794409	8.492446	-8.888589	-27.601190	-23.727395	-4.630766	116.541161	77.561793	-4.084326	2.864317	-23.937291	-32.187755	-2.029713	125.583990	86.684677	-6.955851	0.253028
1.983051	3.020451	-7.109090	88.490583	0.153189	0.887115	0.413505	13.258217	-3.721610	-17.979765	25.202112	0.439860	39.945443	18.522340	0.000000	17.737174	-5.243575	-12.841043	31.776100	0.554598	40.135324	8.152929	0.000000	-0.107388	-0.219735	2.585427	-0.199430	-0.292248	2.747016	-0.176427	-0.534264	2.747016	-0.122734	-0.534264	2.262248	-0.099720	-0.448084	2.100659	-0.061361	-0.340370	1.939070	-0.767060	-2.485689	14.379367	0.000000	0.000000	11.051554	8.741225	-8.351118	-25.643675	-23.319311	-0.369053	117.091741	76.354561	-3.111743	4.399170	-21.628082	-31.355277	2.098181	127.001240	84.881789	-6.632232	3.086585
2.000000	3.160509	-6.949049	88.354982	0.153541	0.886747	0.413383	13.248469	-3.534864	-17.671510	25.453045	0.444239	40.129873	18.465961	0.000000	17.796732	-5.542134	-13.028261	32.318245	0.564060	40.277195	8.556973	0.000000	-0.101113	-0.205031	2.477064	-0.187777	-0.272691	2.631881	-0.166119	-0.498513	2.631881	-0.115562	-0.498513	2.167431	-0.093894	-0.418099	2.012615	-0.057776	-0.317593	1.857798	-0.722242	-2.319353	13.776688	0.000000	0.000000	11.360180	8.974252	-7.873287	-23.234161	-23.053310	3.854343	117.369252	75.625778	-2.300465	5.843105	-18.969439	-30.631702	6.199137	127.914987	82.925375	-6.190480	5.675811
2.016949	3.352045	-6.751764	88.309713	0.153831	0.886394	0.413164	13.158165	-3.307902	-17.478057	25.677478	0.448157	40.301693	18.408873	0.000000	17.824335	-5.877314	-13.128423	32.872705	0.573737	40.341688	8.913600	0.000000	-0.096332	-0.186323	2.346262	-0.178897	-0.247810	2.492903	-0.158263	-0.453026	2.492903	-0.110097	-0.453026	2.052979	-0.089453	-0.379950	1.906338	-0.055044	-0.288614	1.759696	-0.688086	-2.107724	13.049204	0.000000	0.000000	11.719252	9.229246	-7.444913	-20.397870	-22.960097	7.957913	117.338730	75.477315	-1.671885	7.012000	-16.041670	-29.911611	10.073912	128.268560	80.997423	-5.445966	7.951945
2.033898	3.601746	-6.501873	88.378528	0.153949	0.886104	0.412892	12.967934	-3.045414	-17.432070	25.871421	0.451541	40.434911	18.349756	0.000000	17.813026	-6.243005	-13.111911	33.440924	0.583654	40.319033	9.206998	0.000000	-0.095408	-0.160892	2.205941	-0.177182	-0.213986	2.343812	-0.156746	-0.391192	2.343812	-0.109042	-0.391192	1.930198	-0.088596	-0.328091	1.792327	-0.054516	-0.249221	1.654456	-0.681490	-1.820040	12.268782	0.000000	0.000000	12.071023	9.456373	-7.096411	-17.246156	-23.026327	11.744265	117.023504	75.821828	-1.034156	7.910847	-12.795420	-29.180201	13.806336	127.987697	79.229277	-4.656540	9.818181
2.050847	3.887964	-6.226586	88.509959	0.153946	0.885860	0.412544	12.711725	-2.759623	-17.477035	26.028577	0.454284	40.540276	18.301497	0.000000	17.772795	-6.622275	-13.013646	34.003363	0.593471	40.222317	9.407364	0.000000	-0.094724	-0.132211	2.062405	-0.175912	-0.175841	2.191306	-0.155622	-0.321458	2.191306	-0.108260	-0.321458	1.804605	-0.087961	-0.269605	1.675704	-0.054125	-0.204795	1.546804	-0.676605	-1.495597	11.470480	0.000000	0.000000	12.402464	9.618705	-6.895878	-13.776637	-23.226335	15.204808	116.395639	76.455032	-0.248418	8.503726	-9.420809	-28.367637	17.180386	127.103341	77.648973	-3.775960	11.076241
2.067797	4.207530	-5.909695	88.714882	0.153741	0.885708	0.412154	12.365742	-2.460785	-17.629602	26.133468	0.456115	40.600488	18.265406	0.000000	17.683085	-6.997374	-12.810558	34.545727	0.602937	40.053110	9.513490	0.000000	-0.097535	-0.098564	1.926363	-0.181133	-0.131090	2.046761	-0.160241	-0.239648	2.046761	-0.111473	-0.239648	1.685568	-0.090571	-0.200992	1.565170	-0.055732	-0.152676	1.444772	-0.696685	-1.114975	10.713853	0.000000	0.000000	12.668538	9.696152	-6.830260	-10.090132	-23.497818	18.221737	115.523144	77.085442	0.771547	8.974842	-5.920222	-27.457476	20.223475	125.659588	76.207084	-2.907065	11.918533
2.084746	4.530095	-5.574452	88.946641	0.153391	0.885653	0.411767	11.968925	-2.169769	-17.823008	26.185919	0.457031	40.610302	18.242237	0.000000	17.546092	-7.341079	-12.534134	35.034312	0.611464	39.822181	9.521054	0.000000	-0.101861	-0.063037	1.799169	-0.189166	-0.083839	1.911618	-0.167348	-0.153268	1.911618	-0.116417	-0.153268	1.574273	-0.094588	-0.128545	1.461825	-0.058203	-0.097644	1.349377	-0.727584	-0.713085	10.006441	0.000000	0.000000	12.851928	9.693092	-6.809201	-6.182552	-23.771733	20.806191	114.403255	77.254499	2.162911	9.466513	-2.441906	-26.445390	22.884062	123.742598	74.738316	-2.403666	12.258691
2.101695	4.860457	-5.222774	89.209147	0.152863	0.885695	0.411427	11.527783	-1.884021	-18.062219	26.186174	0.457035	40.564383	18.228784	0.000000	17.368529	-7.657885	-12.186789	35.472902	0.619119	39.559704	9.454011	0.000000	-0.108426	-0.023198	1.686365	-0.201357	-0.030853	1.791763	-0.178132	-0.056404	1.791763	-0.123920	-0.056404	1.475570	-0.100684	-0.047305	1.370172	-0.061954	-0.035934	1.264774	-0.774473	-0.262420	9.379057	0.000000	0.000000	12.918612	9.565645	-6.794739	-2.228445	-23.964129	22.887926	113.164815	77.163110	3.770468	9.941709	0.971722	-25.289574	25.108276	121.389629	73.299245	-2.162470	12.223276
2.118644	5.159239	-4.859100	89.485304	0.152194	0.885835	0.411155	11.058187	-1.641152	-18.314539	26.147011	0.456351	40.490855	18.230637	0.000000	17.135050	-7.900341	-11.768152	35.822089	0.625213	39.283086	9.284047	0.000000	-0.117705	0.016549	1.585392	-0.218589	0.022010	1.684479	-0.193377	0.040238	1.684479	-0.134525	0.040238	1.387218	-0.109300	0.033747	1.288131	-0.067256	0.025635	1.189044	-0.840752	0.187207	8.817474	0.000000	0.000000	12.878229	9.362354	-6.701172	1.664854	-23.966865	24.473482	111.811165	76.462939	5.588337	10.574523	4.256711	-24.021710	26.896790	118.731318	71.921308	-2.396986	11.878896
2.135593	5.434943	-4.506989	89.760213	0.151435	0.886046	0.410973	10.597249	-1.426533	-18.557338	26.080206	0.455185	40.382043	18.242985	0.000000	16.877231	-8.090805	-11.308833	36.093902	0.629957	39.020370	9.045893	0.000000	-0.125621	0.055813	1.504753	-0.233290	0.074231	1.598801	-0.206382	0.135703	1.598801	-0.143572	0.135703	1.316659	-0.116651	0.113813	1.222612	-0.071780	0.086454	1.128565	-0.897295	0.631365	8.368987	0.000000	0.000000	12.734564	9.111486	-6.607083	5.302868	-23.751094	25.490166	110.427757	75.203678	7.415289	11.362614	7.383970	-22.592018	28.233954	115.840087	70.629652	-3.014863	11.466018
